<?xml version="1.0" encoding="iso-8859-1"?>
<!-- Uploaded to: SVG Repo, www.svgrepo.com, Generator: SVG Repo Mixer Tools -->
<!DOCTYPE svg PUBLIC "-//W3C//DTD SVG 1.1//EN" "http://www.w3.org/Graphics/SVG/1.1/DTD/svg11.dtd">
<svg fill="#000000" version="1.1" id="Capa_1" xmlns="http://www.w3.org/2000/svg" xmlns:xlink="http://www.w3.org/1999/xlink" 
	 width="800px" height="800px" viewBox="0 0 176.708 176.707"
	 xml:space="preserve">
<g>
	<g>
		<path d="M161.423,11.661H15.281C6.877,11.661,0,18.544,0,26.941v97.326c0,8.409,6.884,15.283,15.281,15.283h66.837v13.025H35.354
			l-6.235,6.235v6.235h118.47v-6.235l-6.234-6.235H94.588v-13.019h66.835c8.415,0,15.284-6.881,15.284-15.284V26.941
			C176.708,18.544,169.838,11.661,161.423,11.661z M170.472,105.567c0,4.993-4.056,9.049-9.049,9.049H15.281
			c-4.993,0-9.045-4.056-9.045-9.049V26.941c0-4.987,4.052-9.045,9.045-9.045h146.143c4.993,0,9.049,4.058,9.049,9.045V105.567z"/>
		<path d="M118.214,55.612c2.729-1.583,3.672-5.069,2.089-7.807c-1.571-2.73-5.072-3.665-7.8-2.088
			c-2.266,1.303-3.203,3.897-2.601,6.296l-19.99,11.548V40.493c2.381-0.688,4.158-2.795,4.158-5.401
			c0-3.154-2.557-5.718-5.711-5.718c-3.161,0-5.718,2.558-5.718,5.718c0,2.6,1.771,4.707,4.152,5.401v23.074L66.81,52.025
			c0.594-2.405-0.341-4.999-2.6-6.302c-2.731-1.577-6.229-0.643-7.806,2.088s-0.643,6.229,2.088,7.806
			c2.25,1.303,4.969,0.816,6.753-0.898L85.23,66.262L65.257,77.798c-1.784-1.714-4.5-2.207-6.753-0.904
			c-2.737,1.577-3.678,5.069-2.095,7.807c1.577,2.733,5.075,3.665,7.807,2.089c2.253-1.297,3.193-3.897,2.6-6.291l19.979-11.536
			v23.074c-2.381,0.694-4.152,2.795-4.152,5.401c0,3.154,2.557,5.718,5.718,5.718c3.154,0,5.711-2.558,5.711-5.718
			c0-2.606-1.777-4.713-4.158-5.401V68.963l19.984,11.536c-0.597,2.405,0.341,4.993,2.594,6.296c2.74,1.577,6.229,0.651,7.807-2.095
			c1.583-2.731,0.646-6.223-2.089-7.8c-2.259-1.303-4.975-0.816-6.753,0.904L91.471,66.269l19.99-11.548
			C113.246,56.428,115.961,56.915,118.214,55.612z"/>
	</g>
</g>
</svg>